<svg width="14" height="17" viewBox="0 0 14 17" fill="none" xmlns="http://www.w3.org/2000/svg">
<g clip-path="url(#clip0_853_33)">
<path d="M1.59422 2.67676H11.9974C12.609 2.67676 13.1067 3.34703 13.1067 4.1709V12.8297C13.1067 13.6535 12.609 14.3238 11.9974 14.3238H1.59422C0.982529 14.3238 0.484879 13.6535 0.484879 12.8297V4.1709C0.484879 3.34703 0.982529 2.67676 1.59422 2.67676ZM1.739 3.67285L1.88706 3.8389L6.35565 8.85061C6.6107 9.13663 6.98092 9.13663 7.23592 8.85061L11.7045 3.8389L11.8526 3.67285H1.739ZM12.3671 4.39196L8.72623 8.47539L12.3671 11.739V4.39196ZM1.59422 13.3277H11.9974C12.176 13.3277 12.3255 13.1561 12.3597 12.9289L8.13325 9.14041L7.70914 9.61608C7.44453 9.91285 7.12013 10.0612 6.79576 10.0612C6.47139 10.0612 6.14702 9.91285 5.88238 9.61608L5.45827 9.14041L1.23183 12.9289C1.2661 13.1562 1.41554 13.3277 1.59422 13.3277ZM1.22444 11.739L4.86534 8.47542L1.22444 4.39196V11.739Z" fill="black"/>
</g>
<defs>
<clipPath id="clip0_853_33">
<rect width="12.6218" height="17" fill="white" transform="matrix(-1 0 0 1 13.1067 0)"/>
</clipPath>
</defs>
</svg>
